<svg xmlns="http://www.w3.org/2000/svg" width="32" height="32" viewBox="0 0 32 32">
    <path fill="#E74C3C" fill-rule="evenodd" d="M14.109 15.99l-3.952 3.961c-.505.548-.505 1.389 0 1.892.252.253.587.38.925.38.339 0 .674-.125.97-.38l3.953-3.96 3.97 3.96c.252.253.588.38.926.38.336 0 .674-.125.926-.421.505-.547.505-1.388 0-1.892l-3.93-3.923 3.93-3.94c.505-.547.549-1.388 0-1.891-.549-.504-1.392-.504-1.896 0L16 14.095l-3.948-3.94c-.55-.503-1.392-.503-1.896 0-.505.548-.505 1.389 0 1.893l3.952 3.943zM16 30C8.268 30 2 23.732 2 16S8.268 2 16 2s14 6.268 14 14-6.268 14-14 14z"/>
</svg>
