<?xml version="1.0" encoding="UTF-8"?>
<svg width="16px" height="16px" viewBox="0 0 16 16" version="1.1" xmlns="http://www.w3.org/2000/svg" xmlns:xlink="http://www.w3.org/1999/xlink">
    <!-- Generator: sketchtool 51.3 (57544) - http://www.bohemiancoding.com/sketch -->
    <title>D52B25E1-54A5-40A5-BF2B-A81F428688D9</title>
    <desc>Created with sketchtool.</desc>
    <defs></defs>
    <g id="Symbols" stroke="none" stroke-width="1" fill="none" fill-rule="evenodd">
        <g id="Action-icons/Password/Show/16px/Light-grey_base" fill="#BCC4D1">
            <path d="M8,6.4064 C8.28758314,6.4064 8.55773294,6.47893261 8.81045752,6.624 C9.06318209,6.76906739 9.26361582,6.9653321 9.41176471,7.2128 C9.55991359,7.4602679 9.63398693,7.72479859 9.63398693,8.0064 C9.63398693,8.28800141 9.55991359,8.5525321 9.41176471,8.8 C9.26361582,9.0474679 9.06318209,9.24373261 8.81045752,9.3888 C8.55773294,9.53386739 8.28758314,9.6064 8,9.6064 C7.71241686,9.6064 7.44226706,9.53386739 7.18954248,9.3888 C6.93681791,9.24373261 6.73638418,9.0474679 6.58823529,8.8 C6.44008641,8.5525321 6.36601307,8.28800141 6.36601307,8.0064 C6.36601307,7.72479859 6.44008641,7.4602679 6.58823529,7.2128 C6.73638418,6.9653321 6.93681791,6.76906739 7.18954248,6.624 C7.44226706,6.47893261 7.71241686,6.4064 8,6.4064 Z M8,10.6816 C8.49673451,10.6816 8.95424627,10.5621345 9.37254902,10.3232 C9.79085176,10.0842655 10.1220031,9.76000205 10.3660131,9.3504 C10.610023,8.94079795 10.7320261,8.49280243 10.7320261,8.0064 C10.7320261,7.51999757 10.610023,7.07200205 10.3660131,6.6624 C10.1220031,6.25279795 9.79085176,5.92853453 9.37254902,5.6896 C8.95424627,5.45066547 8.49673451,5.3312 8,5.3312 C7.50326549,5.3312 7.04575373,5.45066547 6.62745098,5.6896 C6.20914824,5.92853453 5.87799686,6.25279795 5.63398693,6.6624 C5.38997699,7.07200205 5.26797386,7.51999757 5.26797386,8.0064 C5.26797386,8.49280243 5.38997699,8.94079795 5.63398693,9.3504 C5.87799686,9.76000205 6.20914824,10.0842655 6.62745098,10.3232 C7.04575373,10.5621345 7.50326549,10.6816 8,10.6816 Z M8,4 C8.89760797,4 9.75162993,4.17066496 10.5620915,4.512 C11.3464092,4.84480166 12.0370341,5.3141303 12.6339869,5.92 C13.2309398,6.5258697 13.6862729,7.22132941 14,8.0064 C13.6862729,8.79147059 13.2309398,9.48479699 12.6339869,10.0864 C12.0370341,10.688003 11.3464092,11.1551983 10.5620915,11.488 C9.75162993,11.829335 8.89760797,12 8,12 C7.10239203,12 6.24837007,11.829335 5.4379085,11.488 C4.65359085,11.1551983 3.96296595,10.688003 3.36601307,10.0864 C2.7690602,9.48479699 2.31372706,8.79147059 2,8.0064 C2.31372706,7.22132941 2.7690602,6.5258697 3.36601307,5.92 C3.96296595,5.3141303 4.65359085,4.84480166 5.4379085,4.512 C6.24837007,4.17066496 7.10239203,4 8,4 Z" id="visibility---material"></path>
        </g>
    </g>
</svg>