<svg xmlns="http://www.w3.org/2000/svg" width="114" height="86" viewBox="0 0 114 86">
    <path fill="#4382F9" fill-rule="nonzero" d="M29.012 71.024c.184-.463.483-1.298.634-1.771l5.212-16.213c.913-2.847 3.68-4.853 6.666-4.833a3487.246 3487.246 0 0 0 3.175.016 9231.57 9231.57 0 0 0 19.752.076c12.55.03 21.58.003 22.26-.069 9.149-.965 16.423-8.215 16.423-18.352 0-3.716-1.346-8.315-3.803-11.751-3.022-4.226-7.478-6.595-13.87-6.595H29.424a5.433 5.433 0 1 1 0-10.865h56.037c9.956 0 17.677 4.105 22.708 11.139C112.006 17.17 114 23.985 114 29.878c0 15.967-11.707 27.634-26.148 29.158-1.325.14-9.142.164-23.428.128a7312.89 7312.89 0 0 1-19.779-.076c-.071 0-1.622 4.495-4.653 13.486-.225.7-.605 1.762-.876 2.447l-2.336 5.906c-1.045 2.647-3.737 4.479-6.583 4.479H6.26c-4.313 0-7.278-4.092-5.933-8.19l15.732-47.97c.924-2.815 3.667-4.803 6.632-4.803h64.665a5.433 5.433 0 0 1 0 10.865h-61.85L12.64 74.54h14.982l1.39-3.516z"/>
</svg>
