<?xml version="1.0" encoding="UTF-8"?>
<svg width="160px" height="160px" viewBox="0 0 160 160" version="1.1" xmlns="http://www.w3.org/2000/svg" xmlns:xlink="http://www.w3.org/1999/xlink">
    <!-- Generator: sketchtool 51.3 (57544) - http://www.bohemiancoding.com/sketch -->
    <title>C2CD0AFB-2535-4890-90D7-C9B0D1226FFA</title>
    <desc>Created with sketchtool.</desc>
    <defs></defs>
    <g id="Elements" stroke="none" stroke-width="1" fill="none" fill-rule="evenodd">
        <g id="Elements_Avatars" transform="translate(-56.000000, -422.000000)">
            <g id="Elements/Avatar/Company/Large/Fallback+icon" transform="translate(56.000000, 422.000000)">
                <g id="Group-2">
                    <path d="M80,0 C94.6154577,0 108.140963,3.65380962 120.576923,10.9615385 C132.628265,17.88465 142.11535,27.3717346 149.038462,39.4230769 C156.34619,51.8590365 160,65.3845423 160,80 C160,94.6154577 156.34619,108.140963 149.038462,120.576923 C142.11535,132.628265 132.628265,142.11535 120.576923,149.038462 C108.140963,156.34619 94.6154577,160 80,160 C65.3845423,160 51.8590365,156.34619 39.4230769,149.038462 C27.3717346,141.987144 17.88465,132.435958 10.9615385,120.384615 C3.65380962,107.948656 0,94.4872519 0,80 C0,65.5127481 3.65380962,52.0513442 10.9615385,39.6153846 C18.0128558,27.5640423 27.5640423,18.0128558 39.6153846,10.9615385 C52.0513442,3.65380962 65.5127481,0 80,0 Z" id="Path" fill="#E9ECF0"></path>
                    <path d="M117.848017,41.1226375 L42.1519829,41.1226375 L39,28 L121,28 L117.848017,41.1226375 Z M45.3039657,47.6871063 L114.695898,47.6871063 L114.689979,133 L86.3039657,133 L86.3039657,113.312894 L73.6899786,113.312894 L73.6899786,133 L45.3039657,133 L45.3039657,47.6871063 Z M67.3860128,106.748425 L67.3860128,93.6257875 L54.7720257,93.6257875 L54.7720257,106.748425 L67.3860128,106.748425 Z M67.3860128,87.0613188 L67.3860128,73.9386812 L54.7720257,73.9386812 L54.7720257,87.0613188 L67.3860128,87.0613188 Z M67.3860128,67.3742125 L67.3860128,54.251575 L54.7720257,54.251575 L54.7720257,67.3742125 L67.3860128,67.3742125 Z M86.3100214,106.748425 L86.3100214,93.6257875 L73.6960343,93.6257875 L73.6960343,106.748425 L86.3100214,106.748425 Z M86.3100214,87.0613188 L86.3100214,73.9386812 L73.6960343,73.9386812 L73.6960343,87.0613188 L86.3100214,87.0613188 Z M86.3100214,67.3742125 L86.3100214,54.251575 L73.6960343,54.251575 L73.6960343,67.3742125 L86.3100214,67.3742125 Z M105.23403,106.748425 L105.23403,93.6257875 L92.6200428,93.6257875 L92.6200428,106.748425 L105.23403,106.748425 Z M105.23403,87.0613188 L105.23403,73.9386812 L92.6200428,73.9386812 L92.6200428,87.0613188 L105.23403,87.0613188 Z M105.23403,67.3742125 L105.23403,54.251575 L92.6200428,54.251575 L92.6200428,67.3742125 L105.23403,67.3742125 Z" id="Combined-Shape" fill="#BCC4D1"></path>
                </g>
            </g>
        </g>
    </g>
</svg>