<?xml version="1.0" encoding="UTF-8"?>
<svg width="32px" height="32px" viewBox="0 0 32 32" version="1.1" xmlns="http://www.w3.org/2000/svg" xmlns:xlink="http://www.w3.org/1999/xlink">
    <!-- Generator: sketchtool 51.3 (57544) - http://www.bohemiancoding.com/sketch -->
    <title>9783BE41-5BF6-40C3-8960-E9DAD3D1ECEF</title>
    <desc>Created with sketchtool.</desc>
    <defs></defs>
    <g id="Elements" stroke="none" stroke-width="1" fill="none" fill-rule="evenodd">
        <g id="Elements_Avatars" transform="translate(-323.000000, -84.000000)">
            <g id="Elements/Avatar/Company/Small/Fallback+icon" transform="translate(323.000000, 84.000000)">
                <g id="Group-2">
                    <path d="M16,0 C18.9230915,0 21.6281927,0.730761923 24.1153846,2.19230769 C26.5256531,3.57693 28.42307,5.47434692 29.8076923,7.88461538 C31.2692381,10.3718073 32,13.0769085 32,16 C32,18.9230915 31.2692381,21.6281927 29.8076923,24.1153846 C28.42307,26.5256531 26.5256531,28.42307 24.1153846,29.8076923 C21.6281927,31.2692381 18.9230915,32 16,32 C13.0769085,32 10.3718073,31.2692381 7.88461538,29.8076923 C5.47434692,28.3974288 3.57693,26.4871915 2.19230769,24.0769231 C0.730761923,21.5897312 0,18.8974504 0,16 C0,13.1025496 0.730761923,10.4102688 2.19230769,7.92307692 C3.60257115,5.51280846 5.51280846,3.60257115 7.92307692,2.19230769 C10.4102688,0.730761923 13.1025496,0 16,0 Z" id="Path" fill="#ECEFF1"></path>
                    <path d="M22.4618566,9.24959501 L9.53814342,9.24959501 L9,7 L23,7 L22.4618566,9.24959501 Z M10.0762868,10.3749325 L21.9236899,10.3749325 L21.9226793,25 L17.0762868,25 L17.0762868,21.6250675 L14.9226793,21.6250675 L14.9226793,25 L10.0762868,25 L10.0762868,10.3749325 Z M13.8463924,20.49973 L13.8463924,18.250135 L11.6927849,18.250135 L11.6927849,20.49973 L13.8463924,20.49973 Z M13.8463924,17.1247975 L13.8463924,14.8752025 L11.6927849,14.8752025 L11.6927849,17.1247975 L13.8463924,17.1247975 Z M13.8463924,13.749865 L13.8463924,11.50027 L11.6927849,11.50027 L11.6927849,13.749865 L13.8463924,13.749865 Z M17.0773207,20.49973 L17.0773207,18.250135 L14.9237132,18.250135 L14.9237132,20.49973 L17.0773207,20.49973 Z M17.0773207,17.1247975 L17.0773207,14.8752025 L14.9237132,14.8752025 L14.9237132,17.1247975 L17.0773207,17.1247975 Z M17.0773207,13.749865 L17.0773207,11.50027 L14.9237132,11.50027 L14.9237132,13.749865 L17.0773207,13.749865 Z M20.308249,20.49973 L20.308249,18.250135 L18.1546415,18.250135 L18.1546415,20.49973 L20.308249,20.49973 Z M20.308249,17.1247975 L20.308249,14.8752025 L18.1546415,14.8752025 L18.1546415,17.1247975 L20.308249,17.1247975 Z M20.308249,13.749865 L20.308249,11.50027 L18.1546415,11.50027 L18.1546415,13.749865 L20.308249,13.749865 Z" id="Combined-Shape" fill="#BCC4D1"></path>
                </g>
            </g>
        </g>
    </g>
</svg>