<?xml version="1.0" encoding="UTF-8"?>
<svg width="160px" height="160px" viewBox="0 0 160 160" version="1.1" xmlns="http://www.w3.org/2000/svg" xmlns:xlink="http://www.w3.org/1999/xlink">
    <!-- Generator: sketchtool 51.3 (57544) - http://www.bohemiancoding.com/sketch -->
    <title>32023A69-3F57-4473-8CDF-60018CBB5B26</title>
    <desc>Created with sketchtool.</desc>
    <defs></defs>
    <g id="Elements" stroke="none" stroke-width="1" fill="none" fill-rule="evenodd">
        <g id="Elements_Avatars" transform="translate(-56.000000, -238.000000)">
            <g id="Elements/Avatar/User/Large/Fallback+icon" transform="translate(56.000000, 238.000000)">
                <g id="Avatar">
                    <path d="M80,0 C94.6154577,0 108.140963,3.65380962 120.576923,10.9615385 C132.628265,17.88465 142.11535,27.3717346 149.038462,39.4230769 C156.34619,51.8590365 160,65.3845423 160,80 C160,94.6154577 156.34619,108.140963 149.038462,120.576923 C142.11535,132.628265 132.628265,142.11535 120.576923,149.038462 C108.140963,156.34619 94.6154577,160 80,160 C65.3845423,160 51.8590365,156.34619 39.4230769,149.038462 C27.3717346,141.987144 17.88465,132.435958 10.9615385,120.384615 C3.65380962,107.948656 0,94.4872519 0,80 C0,65.5127481 3.65380962,52.0513442 10.9615385,39.6153846 C18.0128558,27.5640423 27.5640423,18.0128558 39.6153846,10.9615385 C52.0513442,3.65380962 65.5127481,0 80,0 Z" id="Path" fill="#E9ECF0"></path>
                    <path d="M80,133.897143 C70.8570971,133.897143 62.1409938,131.580976 53.8514286,126.948571 C45.9275794,122.681883 39.4057399,116.769562 34.2857143,109.211429 C34.4076197,104.579024 37.2723529,100.3124 42.88,96.4114286 C47.6343095,93.1199835 53.7904384,90.4381056 61.3485714,88.3657143 C68.1752722,86.5371337 74.361877,85.6228571 79.9085714,85.6228571 C85.4552658,85.6228571 91.6418706,86.5371337 98.4685714,88.3657143 C106.026704,90.4381056 112.243785,93.1199835 117.12,96.4114286 C122.727647,100.3124 125.59238,104.579024 125.714286,109.211429 C120.59426,116.769562 114.072421,122.681883 106.148571,126.948571 C97.9809115,131.580976 89.2648082,133.897143 80,133.897143 Z M80,25.6457143 C84.0228773,25.6457143 87.8018871,26.6818944 91.3371429,28.7542857 C94.8723986,30.826677 97.6761801,33.6304585 99.7485714,37.1657143 C101.820963,40.7009701 102.857143,44.4799799 102.857143,48.5028571 C102.857143,52.5257344 101.820963,56.3047442 99.7485714,59.84 C97.6761801,63.3752558 94.8723986,66.1790373 91.3371429,68.2514286 C87.8018871,70.3238199 84.0228773,71.36 80,71.36 C75.9771227,71.36 72.1981129,70.3238199 68.6628571,68.2514286 C65.1276014,66.1790373 62.3238199,63.3752558 60.2514286,59.84 C58.1790373,56.3047442 57.1428571,52.5257344 57.1428571,48.5028571 C57.1428571,44.4799799 58.1790373,40.7009701 60.2514286,37.1657143 C62.3238199,33.6304585 65.1276014,30.826677 68.6628571,28.7542857 C72.1981129,26.6818944 75.9771227,25.6457143 80,25.6457143 Z" id="Combined-Shape" fill="#BCC4D1"></path>
                </g>
            </g>
        </g>
    </g>
</svg>