<?xml version="1.0" encoding="UTF-8"?>
<svg width="16px" height="16px" viewBox="0 0 16 16" version="1.1" xmlns="http://www.w3.org/2000/svg" xmlns:xlink="http://www.w3.org/1999/xlink">
    <!-- Generator: sketchtool 51.3 (57544) - http://www.bohemiancoding.com/sketch -->
    <title>00E7D03F-B3D8-4995-A162-2AF9AE130EEE</title>
    <desc>Created with sketchtool.</desc>
    <defs>
        <path d="M11.984109,2.70680245 L12,11.9334082 C12,12.5170606 11.5293673,13.0032215 10.929531,13.0032215 L1.07046897,13.0032215 C0.486458877,13.0032215 0,12.532877 0,11.9334082 L0,2.67388514 C0.0164747406,2.09088095 0.486458877,1.6370011 1.07046897,1.6370011 L1.60570346,1.6370011 L1.60570346,1.06981334 C1.60570346,0.486160935 2.09216234,0 2.67617243,0 C3.26018253,0 3.74664141,0.470344499 3.74664141,1.06981334 L3.74664141,1.6370011 L8.2374676,1.63763408 L8.2374676,1.07044632 C8.2374676,0.486793917 8.70810035,0.000632981538 9.30793658,0.000632981538 C9.89194667,0.000632981538 10.3784055,0.470977481 10.3784055,1.07044632 L10.3784055,1.63763408 L10.91364,1.63763408 C11.4976501,1.63763408 11.9676408,2.09086572 11.984109,2.70680245 Z M1.8599999,10.0500004 L10.1387179,10.0500004 C10.1387179,9.72541855 10.1416018,8.89626973 10.1387179,8.31000042 L1.8599999,8.31000042 C1.8599999,8.75550629 1.8599999,9.54518921 1.8599999,10.0500004 Z M1.8599999,6.3612962 L10.1387179,6.3612962 C10.1387179,6.03671432 10.1416018,5.2075655 10.1387179,4.62129619 L1.8599999,4.62129619 C1.8599999,5.06680205 1.8599999,5.85648497 1.8599999,6.3612962 Z" id="path-1"></path>
    </defs>
    <g id="Symbols" stroke="none" stroke-width="1" fill="none" fill-rule="evenodd">
        <g id="Icons/Date-picker/Filled/24px/Dark-grey">
            <g id="Test/Color/Dark-gray/Base" transform="translate(2.000000, 2.000000)">
                <mask id="mask-2" fill="white">
                    <use xlink:href="#path-1"></use>
                </mask>
                <use id="Mask" fill="#FF02D4" fill-rule="nonzero" xlink:href="#path-1"></use>
                <g mask="url(#mask-2)" fill="#5E6475" id="Rectangle-5">
                    <g transform="translate(-2.000000, -2.000000)">
                        <rect x="0" y="0" width="16" height="16"></rect>
                    </g>
                </g>
            </g>
        </g>
    </g>
</svg>