<?xml version="1.0" encoding="UTF-8"?>
<svg width="24px" height="24px" viewBox="0 0 24 24" version="1.1" xmlns="http://www.w3.org/2000/svg" xmlns:xlink="http://www.w3.org/1999/xlink">
    <!-- Generator: sketchtool 51.3 (57544) - http://www.bohemiancoding.com/sketch -->
    <title>8DF99E59-2E0C-4BDA-A954-1053888292F5</title>
    <desc>Created with sketchtool.</desc>
    <defs></defs>
    <g id="Symbols" stroke="none" stroke-width="1" fill="none" fill-rule="evenodd">
        <g id="Action-icons/Reports/Line/24px/Grey_base">
            <g id="settings">
                <rect id="bg" fill="#80CBC4" opacity="0" x="0" y="0" width="24" height="24"></rect>
                <path d="M19.5110692,14.7766188 C20.0615072,15.0093654 20.2259554,15.677511 20.0107244,16.098008 C18.7619847,18.537672 16.4602299,20.2876306 13.748682,20.8245056 C10.8207003,21.4050436 7.79502365,20.4953724 5.672349,18.396383 C3.54992493,16.2984332 2.60599299,13.2840915 3.15207735,10.3486858 C3.63841258,7.7384065 5.2477697,5.49367014 7.52308625,4.18926468 C7.94737006,3.94602902 8.63094556,4.05709089 8.98212954,4.66412931 C9.33331351,5.27116773 8.85477772,5.91155681 8.47679792,6.13884885 C6.81358764,7.13899344 5.64023782,8.80971146 5.27970187,10.7447953 C4.864919,12.974407 5.58186165,15.2639171 7.19390283,16.8573694 C8.80617262,18.4516491 11.1041316,19.1425347 13.3280602,18.701591 C15.3313339,18.3049513 17.0400208,17.0367167 18.0047306,15.2625706 C18.3771689,14.5776392 18.9606313,14.5438722 19.5110692,14.7766188 Z M21,12.000019 C21,12.5976543 20.5155113,13.0821285 19.9178759,13.0821106 L11.9999486,13.081873 C11.4023386,13.0818551 10.9178894,12.5973914 10.9178894,11.9997814 L10.9178894,4.0820916 C10.9178894,3.48446891 11.4023584,3 11.999981,3 C14.3869865,3 16.6760855,3.94844126 18.3632335,5.63639931 C20.051522,7.32387784 21,9.61296159 21,12.000019 Z M16.8997228,7.10973839 C15.8088937,6.01838569 14.4043119,5.30401009 12.8903216,5.06124806 L12.8903216,11.1191023 L18.9483871,11.1192841 C18.7056062,9.60527094 17.9911711,8.20066314 16.8997228,7.10973839 Z" id="Combined-Shape" fill="#A8B0BF" fill-rule="nonzero"></path>
            </g>
        </g>
    </g>
</svg>