<?xml version="1.0" encoding="UTF-8"?>
<svg width="16px" height="16px" viewBox="0 0 16 16" version="1.1" xmlns="http://www.w3.org/2000/svg" xmlns:xlink="http://www.w3.org/1999/xlink">
    <!-- Generator: sketchtool 51.3 (57544) - http://www.bohemiancoding.com/sketch -->
    <title>C31B2C65-431F-4447-9577-B1A7262C6824</title>
    <desc>Created with sketchtool.</desc>
    <defs>
        <path d="M8.80675099,13.3969143 C8.80675099,13.7297429 9.07849897,14 9.41141841,14 L11.8159938,14 C12.1500998,14 12.4206612,13.7273742 12.4206612,13.395736 L12.4206612,7.75553538 C12.4206612,7.58794577 12.5171255,7.54427863 12.6371194,7.65993779 L12.5677112,7.59266507 C12.8065214,7.82280507 13.1876775,7.81218211 13.4170705,7.57260139 L13.8335134,7.13357335 C14.0629124,6.89281038 14.0546787,6.51160437 13.8123383,6.27911378 L7.43740065,0.173932022 C7.19506086,-0.0573862964 6.80565902,-0.0585676326 6.56217182,0.173932022 L0.187234142,6.27911378 C-0.0539281117,6.51043512 -0.0633393363,6.89401287 0.166059037,7.13357335 L0.582501961,7.57260139 C0.811900938,7.81336436 1.1942165,7.82044331 1.43186122,7.59266507 L1.36245306,7.65993779 C1.48244693,7.54545694 1.57891122,7.58912408 1.57891122,7.75553538 L1.57891122,13.395736 C1.57891122,13.7297429 1.85065921,14 2.18357864,14 L4.58815405,14 C4.92226006,14 5.19282147,13.7273742 5.19282147,13.3969143 L5.19282147,7.96357295 C6.16419306,7.96357295 7.85017897,7.96535266 8.80673172,7.96357295 L8.80675099,13.3969143 Z" id="path-1"></path>
    </defs>
    <g id="Symbols" stroke="none" stroke-width="1" fill="none" fill-rule="evenodd">
        <g id="Icons/Building/Filled/16px/Dark-grey">
            <g id="building">
                <rect id="Path" fill="#5E6475" opacity="0" x="0" y="0" width="16" height="16"></rect>
                <g id="Test/Color/Dark-gray/Base" transform="translate(1.000000, 1.000000)">
                    <mask id="mask-2" fill="white">
                        <use xlink:href="#path-1"></use>
                    </mask>
                    <use id="Mask" fill="#FF02D4" fill-rule="nonzero" xlink:href="#path-1"></use>
                    <g mask="url(#mask-2)" fill="#5E6475" id="Rectangle-5">
                        <g transform="translate(-1.000000, -1.000000)">
                            <rect x="0" y="0" width="16" height="16"></rect>
                        </g>
                    </g>
                </g>
            </g>
        </g>
    </g>
</svg>