<?xml version="1.0" encoding="UTF-8"?>
<svg width="16px" height="16px" viewBox="0 0 16 16" version="1.1" xmlns="http://www.w3.org/2000/svg" xmlns:xlink="http://www.w3.org/1999/xlink">
    <!-- Generator: sketchtool 51.3 (57544) - http://www.bohemiancoding.com/sketch -->
    <title>B5E0DF93-897C-49A2-9385-2CC0343C435E</title>
    <desc>Created with sketchtool.</desc>
    <defs>
        <path d="M14,7 L0,7 L0,4.93865031 C0,3.6993989 0.95093264,2.74846626 2.19018405,2.74846626 L4.12269939,2.74846626 L4.12269939,1.50306748 C4.12269939,0.676086014 4.7987854,0 5.62576687,0 L8.37423313,0 C9.2012146,0 9.87730061,0.676086014 9.87730061,1.50306748 L9.87730061,2.74846626 L11.809816,2.74846626 C13.0490674,2.74846626 14,3.6993989 14,4.93865031 L14,7 Z M13.6444149,8.64999998 C13.5489907,8.76231339 13.4372684,8.85842113 13.3128834,8.93170585 L13.3128834,11.809816 C13.3128834,13.0490674 12.3619508,14 11.1226994,14 L2.87730061,14 C1.6380492,14 0.687116564,13.0490674 0.687116564,11.809816 L0.687116564,8.93170585 C0.562731648,8.85842113 0.451009279,8.76231339 0.355585095,8.64999998 L13.6444149,8.64999998 Z M5.75460123,2.74846626 L8.24539877,2.74846626 L8.24539877,1.63190184 L5.75460123,1.63190184 L5.75460123,2.74846626 Z M5.06748466,8.65002441 L3.43558282,8.65002441 L3.43558282,9.89542319 L3.56441718,10.0242575 L4.93865031,10.0242575 L5.06748466,9.89542319 L5.06748466,8.65002441 Z M10.5644172,8.65002441 L8.93251534,8.65002441 L8.93251534,9.89542319 L9.06134969,10.0242575 L10.4355828,10.0242575 L10.5644172,9.89542319 L10.5644172,8.65002441 Z" id="path-1"></path>
    </defs>
    <g id="Symbols" stroke="none" stroke-width="1" fill="none" fill-rule="evenodd">
        <g id="Icons/Projects/Filled/16px/Dark-grey">
            <g id="project">
                <rect id="Path" fill="#5E6475" opacity="0" x="0" y="0" width="16" height="16"></rect>
                <g id="Test/Color/Dark-gray/Base" transform="translate(1.000000, 1.000000)">
                    <mask id="mask-2" fill="white">
                        <use xlink:href="#path-1"></use>
                    </mask>
                    <use id="Mask" fill="#FF02D4" fill-rule="nonzero" xlink:href="#path-1"></use>
                    <g mask="url(#mask-2)" fill="#5E6475" id="Rectangle-5">
                        <g transform="translate(-1.000000, -1.000000)">
                            <rect x="0" y="0" width="16" height="16"></rect>
                        </g>
                    </g>
                </g>
            </g>
        </g>
    </g>
</svg>