<?xml version="1.0" encoding="UTF-8"?>
<svg width="24px" height="24px" viewBox="0 0 24 24" version="1.1" xmlns="http://www.w3.org/2000/svg" xmlns:xlink="http://www.w3.org/1999/xlink">
    <!-- Generator: sketchtool 51.3 (57544) - http://www.bohemiancoding.com/sketch -->
    <title>3FAAD75F-9C95-4616-804E-3E9221865CBF</title>
    <desc>Created with sketchtool.</desc>
    <defs></defs>
    <g id="Symbols" stroke="none" stroke-width="1" fill="none" fill-rule="evenodd">
        <g id="Action-icons/Chat/Line/24px/Grey_base">
            <g id="settings">
                <rect id="bg" fill="#80CBC4" opacity="0" x="0" y="0" width="24" height="24"></rect>
                <path d="M6.55426949,12.5369601 L6.55426949,14.5957896 L5.71947223,14.5957896 L3.33055779,16.9394037 C3.07159164,17.1918203 2.72615577,17.331325 2.3681697,17.331325 C2.19016573,17.331325 2.01256134,17.2965016 1.84436506,17.2283013 C1.33217989,17.0198456 1,16.5326752 1,15.9863726 L1,7.67122159 C1,5.09437597 3.13635028,3 5.760402,3 L11.1389319,3 C12.690099,3 14.1173267,3.73806041 15.0076027,4.95991868 C15.1377357,5.14453634 15.2967919,5.43010593 15.3853617,5.6253874 L15.5715538,6.0359094 L15.1192136,6.0359094 C15.0327151,6.0359094 14.9192849,6.0373992 14.2817826,6.04640156 L14.2231444,6.04722788 C13.7480893,6.05390613 13.492144,6.05695219 13.3610862,6.05695219 L13.2292363,6.05695219 L13.1420372,5.95846744 C12.6396594,5.39106957 11.9170476,5.05951063 11.1378612,5.05951063 L5.75933122,5.05951063 C4.28751519,5.05951063 3.09065882,6.23308616 3.09065882,7.67226529 L3.09065882,14.2699422 L4.45695877,12.9297786 C4.71486656,12.6770705 5.05706482,12.5384153 5.42077229,12.5383664 L6.55426949,12.5369601 Z M18.239598,7.66763126 C20.8638251,7.66763126 23,9.76217973 23,12.3398966 L23,20.6560912 C23,21.2019787 22.6671612,21.6901156 22.1563325,21.8966913 C21.9882293,21.9656131 21.8114909,22 21.6318303,22 C21.2728456,22 20.9274423,21.860858 20.668768,21.6074194 L18.2805277,19.2644646 L12.8610681,19.2644646 C10.2834716,19.2644646 8.17545878,17.2357834 8.11351542,14.6986566 L8.11351542,12.6171448 L8.1038798,12.3254273 C8.11188057,9.75417547 10.2437944,7.66860754 12.8610681,7.66971866 L13.8079256,7.66971866 L18.239598,7.66763126 Z M20.9093412,12.3388529 C20.9093412,10.8992948 19.71317,9.72609819 18.2406688,9.72609819 L12.3674383,9.72609819 C11.4331485,9.72609819 10.1923957,11.0763943 10.1923957,12.3388529 L10.1923957,14.593243 C10.1923957,16.0325682 11.3894018,17.2059976 12.8621388,17.2059976 L18.5801062,17.2059976 C18.942898,17.2059976 19.2851503,17.3449961 19.5442813,17.5975758 L20.9093412,18.9372932 L20.9093412,12.3388529 Z" id="Combined-Shape" fill="#A8B0BF" fill-rule="nonzero"></path>
            </g>
        </g>
    </g>
</svg>