<?xml version="1.0" encoding="UTF-8"?>
<svg width="24px" height="24px" viewBox="0 0 24 24" version="1.1" xmlns="http://www.w3.org/2000/svg" xmlns:xlink="http://www.w3.org/1999/xlink">
    <!-- Generator: sketchtool 51.3 (57544) - http://www.bohemiancoding.com/sketch -->
    <title>F4825F64-96CF-44C8-9F63-1BC459938237</title>
    <desc>Created with sketchtool.</desc>
    <defs></defs>
    <g id="Symbols" stroke="none" stroke-width="1" fill="none" fill-rule="evenodd">
        <g id="Action-icons/Notifications/Line/24px/Grey_base">
            <g id="notifications">
                <rect id="bg" fill="#80CBC4" opacity="0" x="0" y="0" width="24" height="24"></rect>
                <path d="M17.7135275,11.0001176 L17.7135275,9.00040081 C17.7135275,6.58619639 15.7463329,4.5651192 13.1416287,4.10191068 L13.1427004,2 L10.8572996,2 L10.8572996,4.10191068 C8.25152575,4.5650472 6.28540081,6.58643639 6.28540081,9.00040081 L6.28540081,11.0001176 C6.28540081,16.133092 5.7143249,17.000228 4,17.000228 L4,18.9999448 L20,18.9999448 L20,17.000228 C18.2856751,17.000228 17.7135295,16.1339561 17.7135295,11.0001176 L17.7135275,11.0001176 Z M7.73505945,17.000228 C8.5707997,15.4186469 8.5707997,13.1282368 8.5707997,11.0001176 L8.5707997,9.00040081 C8.5707997,7.34662638 10.1094132,6.00034561 11.9994495,6.00034561 C13.8894858,6.00034561 15.4280993,7.34662638 15.4280993,9.00040081 L15.4280993,11.0001176 C15.4280993,13.1282848 15.4280993,15.4185989 16.2638395,17.000228 L7.73505945,17.000228 Z M9.71407612,20.0002832 L14.2859749,20.0002832 L14.2859749,22 L9.71407612,22 L9.71407612,20.0002832 Z" id="Combined-Shape" fill="#A8B0BF" fill-rule="nonzero"></path>
            </g>
        </g>
    </g>
</svg>