<?xml version="1.0" encoding="UTF-8"?>
<svg width="16px" height="16px" viewBox="0 0 16 16" version="1.1" xmlns="http://www.w3.org/2000/svg" xmlns:xlink="http://www.w3.org/1999/xlink">
    <!-- Generator: sketchtool 51.3 (57544) - http://www.bohemiancoding.com/sketch -->
    <title>35F80797-60BC-4692-A258-18856D7E30C9</title>
    <desc>Created with sketchtool.</desc>
    <defs>
        <path d="M12.9992432,11.5565983 L12.9992432,13.9066174 L12.9076943,14 L11.7412498,14 L1.25799341,14 L0.0915489425,14 L0,13.9066174 L0,11.5565983 C0,11.0659989 0.244815636,10.6103771 0.654710601,10.3623408 C2.39349294,9.23514236 4.40855651,8.63742232 6.47800739,8.63742232 L6.55091017,8.63742232 C8.60540279,8.63742232 10.6202692,9.23507012 12.3729286,10.3618931 C12.7765827,10.6156107 13.0152437,11.0760691 12.9992432,11.5565983 Z M6.78390745,7.02815981 L6.23040039,7.02815981 C4.88178632,7.02815981 3.79109034,5.91559387 3.79109034,4.53999164 L3.79109034,2.50259459 C3.79109034,1.1125067 4.88174233,0 6.24454353,0 L6.78390745,0 C8.13481727,0 9.2232175,1.11481243 9.2232175,2.50259459 L9.2232175,4.52556522 C9.2232175,5.91330238 8.13475928,7.02815981 6.78390745,7.02815981 Z" id="path-1"></path>
    </defs>
    <g id="Symbols" stroke="none" stroke-width="1" fill="none" fill-rule="evenodd">
        <g id="Icons/User/Filled/16px/Grey">
            <g id="User"></g>
            <g id="Test/Color/Dark-gray/Base" transform="translate(2.000000, 1.000000)">
                <mask id="mask-2" fill="white">
                    <use xlink:href="#path-1"></use>
                </mask>
                <use id="Mask" fill="#FF02D4" fill-rule="nonzero" xlink:href="#path-1"></use>
                <g mask="url(#mask-2)" fill="#5E6475" id="Rectangle-5">
                    <g transform="translate(-2.000000, -1.000000)">
                        <rect x="0" y="0" width="16" height="16"></rect>
                    </g>
                </g>
            </g>
        </g>
    </g>
</svg>