<?xml version="1.0" encoding="UTF-8"?>
<svg width="24px" height="24px" viewBox="0 0 24 24" version="1.1" xmlns="http://www.w3.org/2000/svg" xmlns:xlink="http://www.w3.org/1999/xlink">
    <!-- Generator: sketchtool 51.3 (57544) - http://www.bohemiancoding.com/sketch -->
    <title>E6F04DEB-5600-480F-9D1B-B8EF58D07900</title>
    <desc>Created with sketchtool.</desc>
    <defs></defs>
    <g id="Symbols" stroke="none" stroke-width="1" fill="none" fill-rule="evenodd">
        <g id="Icons/Error/Circle-filled/24px/Red" fill="#E74C3C">
            <g id="error_24pt-red">
                <path d="M12.8870192,12.8870192 L12.8870192,7.47836538 L11.1129808,7.47836538 L11.1129808,12.8870192 L12.8870192,12.8870192 Z M12.8870192,16.5216346 L12.8870192,14.7043269 L11.1129808,14.7043269 L11.1129808,16.5216346 L12.8870192,16.5216346 Z M12,3 C13.644239,3 15.1658584,3.41105358 16.5649038,4.23317308 C17.9206799,5.01202312 18.9879769,6.07932014 19.7668269,7.43509615 C20.5889464,8.83414161 21,10.355761 21,12 C21,13.644239 20.5889464,15.1658584 19.7668269,16.5649038 C18.9879769,17.9206799 17.9206799,18.9879769 16.5649038,19.7668269 C15.1658584,20.5889464 13.644239,21 12,21 C10.355761,21 8.83414161,20.5889464 7.43509615,19.7668269 C6.07932014,18.9735537 5.01202313,17.8990452 4.23317308,16.5432692 C3.41105358,15.1442238 3,13.6298158 3,12 C3,10.3701842 3.41105358,8.85577623 4.23317308,7.45673077 C5.02644627,6.10095476 6.10095476,5.02644627 7.45673077,4.23317308 C8.85577623,3.41105358 10.3701842,3 12,3 Z" id="error---material"></path>
            </g>
        </g>
    </g>
</svg>