<?xml version="1.0" encoding="UTF-8"?>
<svg width="24px" height="24px" viewBox="0 0 24 24" version="1.1" xmlns="http://www.w3.org/2000/svg" xmlns:xlink="http://www.w3.org/1999/xlink">
    <!-- Generator: sketchtool 51.3 (57544) - http://www.bohemiancoding.com/sketch -->
    <title>04DE9262-D7F5-4F62-ABBC-B7FEE7D29B89</title>
    <desc>Created with sketchtool.</desc>
    <defs></defs>
    <g id="Symbols" stroke="none" stroke-width="1" fill="none" fill-rule="evenodd">
        <g id="Action-icons/Settings/Line/24px/Grey_base">
            <g id="settings">
                <rect id="bg" fill="#80CBC4" opacity="0" x="0" y="0" width="24" height="24"></rect>
                <path d="M6.60239293,16.7094551 C7.20593622,16.376666 8.05725057,16.387327 8.65270666,16.7344887 L10.0381411,17.5418903 C10.6329769,17.8876766 11.0688165,18.6258862 11.0858503,19.3182635 L11.1029108,19.9810206 L12.8971133,19.9792836 L12.9141542,19.3181614 C12.9312264,18.6255947 13.3659849,17.8880984 13.9615108,17.5408965 L15.3483313,16.7338996 C15.942848,16.3883556 16.7947995,16.3770296 17.3952601,16.7081432 L17.9728749,17.0245902 L18.8697039,15.4572158 L18.3095037,15.1112038 C17.7239316,14.7492872 17.3086407,14.0010903 17.3086409,13.3086914 L17.3074383,11.693274 C17.3074383,11.0019711 17.723205,10.2515679 18.3085466,9.88985179 L18.8686999,9.54386879 L17.9728512,7.97583544 L17.3976071,8.2905449 C16.7940638,8.62333399 15.9427494,8.61267296 15.3472933,8.26551129 L13.9618589,7.45810975 C13.3670231,7.11232342 12.9311835,6.37411375 12.9141497,5.68173651 L12.8970892,5.01897942 L11.1028867,5.02071643 L11.0858458,5.68183857 C11.0687736,6.37440525 10.6340151,7.11190159 10.0384892,7.45910353 L8.65166874,8.2661004 C8.05715196,8.61164436 7.20520052,8.6229704 6.60473987,8.29185679 L6.02712507,7.97540984 L5.13029607,9.54278416 L5.69049635,9.88879621 C6.27606836,10.2507128 6.69135934,10.9989097 6.69135905,11.6913086 L6.69256167,13.306726 C6.69256167,13.9980289 6.27679497,14.7484321 5.69145338,15.1101482 L5.13130005,15.4561312 L6.02714879,17.0241646 L6.60239293,16.7094551 Z M4.47192572,18.3442172 L3.2205279,16.153858 C2.7795224,15.3830586 3.0258636,14.3898979 3.77863512,13.9247335 L4.64658775,13.3886359 C4.63739683,13.3943155 4.69174976,13.2962158 4.69175004,13.3074843 L4.69054742,11.6920669 C4.69054742,11.701284 4.63713724,11.6050591 4.64556968,11.6102708 L3.77724852,11.0739455 C3.024298,10.6086542 2.77687654,9.61594104 3.2193425,8.84490528 L4.47223398,6.6552444 C4.91307584,5.88473102 5.88736842,5.6038849 6.66494217,6.02779436 L7.5619224,6.51920789 C7.5514859,6.51345294 7.66144745,6.51199108 7.65246384,6.51721267 L9.03812457,5.71089092 C9.03009532,5.71557212 9.08591788,5.62087832 9.08568119,5.63050622 L9.11219859,4.60181897 C9.13721865,3.71197517 9.86337637,3.0024264 10.7461151,3.00242686 L13.2528921,3 C14.1342874,3 14.8626552,3.7108302 14.8878338,4.6018059 L14.9143162,5.63048357 C14.9140508,5.61969383 14.9699622,5.71439471 14.9616883,5.70958566 L16.3482208,6.5176264 C16.339484,6.51253268 16.4476863,6.5138877 16.4409538,6.51760616 L17.3365938,6.0276056 C18.11172,5.60334233 19.0848795,5.88345348 19.5280743,6.65578277 L20.7794721,8.84614202 C21.2204776,9.61694142 20.9741364,10.6101021 20.2213649,11.0752665 L19.3534122,11.6113641 C19.3626032,11.6056845 19.3082502,11.7037842 19.30825,11.6925157 L19.3094526,13.3079331 C19.3094526,13.298716 19.3628628,13.3949409 19.3544303,13.3897292 L20.2227515,13.9260545 C20.975702,14.3913458 21.2231235,15.384059 20.7806575,16.1550947 L19.527766,18.3447556 C19.0869242,19.115269 18.1126316,19.3961151 17.3350578,18.9722056 L16.4380776,18.4807921 C16.4485141,18.4865471 16.3385525,18.4880089 16.3475362,18.4827873 L14.9618754,19.2891091 C14.9699047,19.2844279 14.9140821,19.3791217 14.9143188,19.3694938 L14.8878014,20.398181 C14.8627813,21.2880248 14.1366236,21.9975736 13.2538849,21.9975731 L10.7471079,22 C9.86571264,22 9.13734481,21.2891698 9.11216622,20.3981941 L9.08568378,19.3695164 C9.08594924,19.3803062 9.03003776,19.2856053 9.03831167,19.2904143 L7.65177923,18.4823736 C7.66051604,18.4874673 7.5523137,18.4861123 7.55904621,18.4823938 L6.66332138,18.9724408 C5.88828003,19.3966577 4.91512051,19.1165465 4.47192572,18.3442172 Z M8.80600314,10.6242242 C9.82617909,8.84148296 12.0860613,8.2304903 13.8522919,9.26036059 C15.6192933,10.2896239 16.2248914,12.5696364 15.2041139,14.3516 C14.1839671,16.1342903 11.9241849,16.745299 10.1576737,15.7153754 C8.39078919,14.68607 7.78525478,12.4061369 8.80600314,10.6242242 Z M11.1576441,13.9784336 C11.9679556,14.452081 13.0045166,14.1711412 13.4726153,13.351132 C13.9407877,12.5318342 13.6630124,11.4834646 12.8522397,11.0100333 C12.0421703,10.5365273 11.0056093,10.8174671 10.5375106,11.6374763 C10.0693382,12.456774 10.3471135,13.5051437 11.1576441,13.9784336 Z" id="Shape" fill="#A8B0BF" fill-rule="nonzero"></path>
            </g>
        </g>
    </g>
</svg>